<svg version="1.1" id="Layer_1" xmlns="http://www.w3.org/2000/svg" xmlns:xlink="http://www.w3.org/1999/xlink" x="0px" y="0px"
	 width="100%" viewBox="0 0 512 512" enable-background="new 0 0 512 512" xml:space="preserve">
<path fill="#000000" opacity="1.000000" stroke="none" 
	d="
M304.000000,513.000000 
	C202.691269,513.000000 101.882530,513.000000 1.036899,513.000000 
	C1.036899,342.399567 1.036899,171.799149 1.036899,1.099354 
	C171.558746,1.099354 342.117554,1.099354 512.838196,1.099354 
	C512.838196,171.666550 512.838196,342.333252 512.838196,513.000000 
	C443.465790,513.000000 373.982880,513.000000 304.000000,513.000000 
M370.115723,450.740540 
	C381.954193,446.364746 393.784973,441.967896 405.636505,437.627777 
	C408.676300,436.514557 410.054779,434.582367 410.025177,431.237183 
	C409.911530,418.406036 409.997314,405.573181 409.951752,392.741180 
	C409.947327,391.496429 409.549805,390.253052 409.219421,388.341675 
	C407.244263,389.220734 405.795654,389.876495 404.338318,390.512268 
	C392.930145,395.488892 381.836365,401.442810 370.048187,405.241058 
	C341.385651,414.476349 311.841644,417.130768 281.869049,413.928009 
	C266.230835,412.256989 251.154877,408.201874 236.942108,401.417969 
	C219.313812,393.003784 204.228729,381.329102 191.601578,366.274384 
	C179.459305,351.797729 170.211670,335.720154 164.317032,317.933746 
	C153.844162,286.332977 152.292313,253.727570 156.233322,220.934509 
	C160.153061,188.318451 171.015564,158.302078 192.506241,132.760315 
	C209.545563,112.509026 229.936279,96.984268 255.063553,88.135063 
	C280.135010,79.305504 305.930908,77.503799 332.282013,79.808075 
	C357.643188,82.025780 381.497559,88.981995 404.105133,100.524506 
	C405.638977,101.307617 407.343262,101.756828 409.613861,102.601486 
	C409.773071,99.844177 409.978516,97.895920 409.983032,95.947205 
	C410.012360,83.281685 409.679260,70.604424 410.141205,57.955708 
	C410.351837,52.188469 407.942444,49.732006 402.954834,47.946632 
	C376.196899,38.368328 348.407013,34.836288 320.237915,34.159618 
	C308.319855,33.873325 296.330444,34.960449 284.426575,36.020012 
	C261.194031,38.087933 239.038986,44.374901 218.039902,54.514690 
	C192.343460,66.922684 170.714203,84.527740 152.218567,106.195465 
	C132.870422,128.861923 119.609093,154.710052 112.022369,183.370483 
	C104.227036,212.818970 101.736153,242.789825 103.811646,273.283386 
	C105.495644,298.025024 110.052254,321.947937 119.125916,345.043060 
	C127.750664,366.995575 140.356689,386.474365 156.326096,403.622040 
	C172.458481,420.944733 191.483490,434.523224 213.449692,443.705688 
	C236.562622,453.367523 260.722626,458.352020 285.703583,458.894531 
	C298.326660,459.168640 311.050201,459.109314 323.589844,457.836395 
	C338.908234,456.281372 354.081299,453.294464 370.115723,450.740540 
z"/>
<path fill="#333333" opacity="1.000000" stroke="none" 
	d="
M369.716461,450.833679 
	C354.081299,453.294464 338.908234,456.281372 323.589844,457.836395 
	C311.050201,459.109314 298.326660,459.168640 285.703583,458.894531 
	C260.722626,458.352020 236.562622,453.367523 213.449692,443.705688 
	C191.483490,434.523224 172.458481,420.944733 156.326096,403.622040 
	C140.356689,386.474365 127.750664,366.995575 119.125916,345.043060 
	C110.052254,321.947937 105.495644,298.025024 103.811646,273.283386 
	C101.736153,242.789825 104.227036,212.818970 112.022369,183.370483 
	C119.609093,154.710052 132.870422,128.861923 152.218567,106.195465 
	C170.714203,84.527740 192.343460,66.922684 218.039902,54.514690 
	C239.038986,44.374901 261.194031,38.087933 284.426575,36.020012 
	C296.330444,34.960449 308.319855,33.873325 320.237915,34.159618 
	C348.407013,34.836288 376.196899,38.368328 402.954834,47.946632 
	C407.942444,49.732006 410.351837,52.188469 410.141205,57.955708 
	C409.679260,70.604424 410.012360,83.281685 409.983032,95.947205 
	C409.978516,97.895920 409.773071,99.844177 409.613861,102.601486 
	C407.343262,101.756828 405.638977,101.307617 404.105133,100.524506 
	C381.497559,88.981995 357.643188,82.025780 332.282013,79.808075 
	C305.930908,77.503799 280.135010,79.305504 255.063553,88.135063 
	C229.936279,96.984268 209.545563,112.509026 192.506241,132.760315 
	C171.015564,158.302078 160.153061,188.318451 156.233322,220.934509 
	C152.292313,253.727570 153.844162,286.332977 164.317032,317.933746 
	C170.211670,335.720154 179.459305,351.797729 191.601578,366.274384 
	C204.228729,381.329102 219.313812,393.003784 236.942108,401.417969 
	C251.154877,408.201874 266.230835,412.256989 281.869049,413.928009 
	C311.841644,417.130768 341.385651,414.476349 370.048187,405.241058 
	C381.836365,401.442810 392.930145,395.488892 404.338318,390.512268 
	C405.795654,389.876495 407.244263,389.220734 409.219421,388.341675 
	C409.549805,390.253052 409.947327,391.496429 409.951752,392.741180 
	C409.997314,405.573181 409.911530,418.406036 410.025177,431.237183 
	C410.054779,434.582367 408.676300,436.514557 405.636505,437.627777 
	C393.784973,441.967896 381.954193,446.364746 369.716461,450.833679 
z"/>
</svg>