<svg width="220" height="34" viewBox="0 0 220 34" fill="none" xmlns="http://www.w3.org/2000/svg">
<path d="M43.6275 9.72983H48.3912C49.7816 9.72983 51.0377 9.92411 52.1595 10.3127C53.2971 10.7013 54.2609 11.2453 55.0509 11.9447C55.8567 12.6286 56.4729 13.4446 56.8994 14.3927C57.3418 15.3408 57.563 16.3744 57.563 17.4935C57.563 18.6126 57.3418 19.6462 56.8994 20.5943C56.4729 21.5424 55.8567 22.3662 55.0509 23.0656C54.2609 23.7495 53.2971 24.2857 52.1595 24.6743C51.0377 25.0629 49.7816 25.2571 48.3912 25.2571H43.6275V9.72983ZM48.4623 22.6459C49.2997 22.6459 50.0739 22.5294 50.7849 22.2962C51.4959 22.0631 52.1042 21.7289 52.6098 21.2937C53.1312 20.843 53.5341 20.299 53.8185 19.6617C54.1029 19.0245 54.2451 18.3017 54.2451 17.4935C54.2451 16.6853 54.1029 15.9625 53.8185 15.3253C53.5341 14.688 53.1312 14.1518 52.6098 13.7166C52.1042 13.2658 51.4959 12.9239 50.7849 12.6907C50.0739 12.4576 49.2997 12.341 48.4623 12.341H46.9455V22.6459H48.4623Z" fill="white"/>
<path d="M77.052 25.2571H73.6155L72.5016 21.9931H66.0078L64.8939 25.2571H61.4574L67.4535 9.72983H71.0559L77.052 25.2571ZM69.2547 12.341L66.8847 19.4053H71.6247L69.2547 12.341Z" fill="white"/>
<path d="M92.1421 9.72983V12.341H87.7813V25.2571H84.4634V12.341H80.1026V9.72983H92.1421Z" fill="white"/>
<path d="M110.778 25.2571H107.342L106.228 21.9931H99.7339L98.62 25.2571H95.1835L101.18 9.72983H104.782L110.778 25.2571ZM102.981 12.341L100.611 19.4053H105.351L102.981 12.341Z" fill="white"/>
<path d="M126.308 25.2571V18.7291H119.767V25.2571H116.449V9.72983H119.767V16.0247H126.308V9.72983H129.626V25.2571H126.308Z" fill="white"/>
<path d="M136.506 9.72983H145.986V12.3177H139.824V16.0713H145.702V18.6592H139.824V22.6693H146.057V25.2571H136.506V9.72983Z" fill="white"/>
<path d="M163.936 14.4626C163.936 15.5662 163.62 16.4987 162.988 17.2603C162.356 18.0064 161.448 18.5815 160.263 18.9856L165.595 25.2571H161.471L156.897 19.5918H155.831V25.2571H152.513V9.72983H157.229C158.209 9.72983 159.109 9.83086 159.931 10.0329C160.752 10.2194 161.456 10.5147 162.04 10.9189C162.641 11.3074 163.107 11.797 163.438 12.3877C163.77 12.9783 163.936 13.6699 163.936 14.4626ZM160.618 14.5326C160.618 13.7399 160.302 13.1648 159.67 12.8073C159.038 12.4498 158.217 12.2711 157.205 12.2711H155.831V17.1205H156.826C157.964 17.1205 158.88 16.9029 159.575 16.4677C160.271 16.0325 160.618 15.3874 160.618 14.5326Z" fill="white"/>
<path d="M185.428 25.2571H181.992L180.878 21.9931H174.384L173.27 25.2571H169.834L175.83 9.72983H179.432L185.428 25.2571ZM177.631 12.341L175.261 19.4053H180.001L177.631 12.341Z" fill="white"/>
<path d="M194.417 9.72983V22.6459H200.295V25.2571H191.099V9.72983H194.417Z" fill="white"/>
<path d="M206.064 9.72983H210.828C212.218 9.72983 213.475 9.92411 214.596 10.3127C215.734 10.7013 216.698 11.2453 217.488 11.9447C218.294 12.6286 218.91 13.4446 219.336 14.3927C219.779 15.3408 220 16.3744 220 17.4935C220 18.6126 219.779 19.6462 219.336 20.5943C218.91 21.5424 218.294 22.3662 217.488 23.0656C216.698 23.7495 215.734 24.2857 214.596 24.6743C213.475 25.0629 212.218 25.2571 210.828 25.2571H206.064V9.72983ZM210.899 22.6459C211.737 22.6459 212.511 22.5294 213.222 22.2962C213.933 22.0631 214.541 21.7289 215.047 21.2937C215.568 20.843 215.971 20.299 216.255 19.6617C216.54 19.0245 216.682 18.3017 216.682 17.4935C216.682 16.6853 216.54 15.9625 216.255 15.3253C215.971 14.688 215.568 14.1518 215.047 13.7166C214.541 13.2658 213.933 12.9239 213.222 12.6907C212.511 12.4576 211.737 12.341 210.899 12.341H209.382V22.6459H210.899Z" fill="white"/>
<path fill-rule="evenodd" clip-rule="evenodd" d="M2.70401 24.6394L2.68025 24.7227L2.6742 24.7444C2.596 24.8405 2.5204 24.9403 2.44739 25.044C0.886463 22.8867 -6.10352e-05 20.1735 -6.10352e-05 17.1309C-6.10352e-05 9.58635 5.43444 4.05157 13.1427 4.05157C15.7353 4.05157 18.0713 4.69205 20.0349 5.82085C20.0145 5.82821 19.9937 5.83527 19.973 5.84233C19.9506 5.84994 19.9283 5.85753 19.9066 5.86547C19.8806 5.87482 19.8526 5.88587 19.8258 5.89692C19.5471 6.00062 19.2892 6.10475 19.0321 6.2093L18.8684 6.2756C18.68 6.35125 18.4925 6.42732 18.3102 6.50807C18.0493 6.62282 17.8017 6.74225 17.5615 6.85827L17.4803 6.8978L17.2988 6.9845C17.1329 7.06355 16.967 7.1426 16.8063 7.2259C16.5804 7.34277 16.3618 7.4656 16.1432 7.58885L16.0205 7.6577L15.95 7.69722L15.9202 7.7138L15.7712 7.79667L15.7557 7.80524C15.6351 7.87209 15.5143 7.93905 15.3979 8.00875C15.3214 8.05397 15.248 8.10113 15.1746 8.14824C15.1453 8.1671 15.1159 8.18596 15.0864 8.20467C14.4716 8.07165 13.8257 7.9943 13.1427 7.9943C7.93934 7.9943 4.62568 11.8992 4.62568 17.1309C4.62568 17.9151 4.71122 18.6652 4.85897 19.3826C4.85537 19.3893 4.85162 19.3961 4.84785 19.403C4.83987 19.4175 4.83174 19.4324 4.82441 19.4468C4.74578 19.5981 4.66931 19.7472 4.59587 19.8947C4.52415 20.0375 4.45416 20.1786 4.3872 20.3176L4.35436 20.3873L4.33103 20.4362L4.31159 20.4765C4.29506 20.5115 4.27846 20.5464 4.26195 20.581C4.23531 20.637 4.20888 20.6924 4.18328 20.7473C4.12319 20.8771 4.06556 21.0048 4.00919 21.1298L4.00442 21.1404L3.99316 21.1658C3.93736 21.2914 3.88213 21.4158 3.83031 21.5365C3.77458 21.6657 3.72187 21.7911 3.67046 21.9152L3.64454 21.9781L3.6346 22.0023L3.60393 22.0771C3.57714 22.1417 3.55079 22.2059 3.52616 22.2675C3.4802 22.3822 3.43787 22.4917 3.39606 22.5999L3.3918 22.6109L3.36458 22.6814C3.33175 22.7673 3.29892 22.8531 3.26867 22.9339C3.23195 23.0325 3.19868 23.1256 3.16542 23.2186L3.13863 23.2939C3.11055 23.3708 3.08333 23.4482 3.05871 23.5191C3.02717 23.6109 2.99995 23.6921 2.97273 23.775L2.95372 23.8311C2.93255 23.8948 2.91139 23.9586 2.89281 24.0155C2.8706 24.0852 2.85144 24.1476 2.83263 24.2088L2.82541 24.2323L2.80381 24.3015L2.76838 24.4171C2.74678 24.4894 2.73037 24.5468 2.71352 24.6058L2.70401 24.6394ZM21.741 18.1229L21.8287 18.1174C22.4081 18.0889 22.9767 18.0234 23.6074 17.9129C24.8236 17.7004 25.7144 17.3825 26.2843 17.1318C26.2834 24.676 20.8113 30.2103 13.1428 30.2103C9.98164 30.2103 7.20542 29.2766 5.02712 27.6578C5.04254 27.633 5.05863 27.6066 5.07433 27.5809C5.08372 27.5655 5.09298 27.5503 5.10186 27.5358C5.52871 26.8528 5.89334 26.3007 5.98796 26.1584C6.09422 26.0258 6.20264 25.9009 6.31105 25.7759L6.31112 25.7759C6.33043 25.7533 6.34978 25.7308 6.36914 25.7083C6.40782 25.6634 6.4465 25.6185 6.48479 25.5732C6.84208 25.1537 7.21795 24.7423 7.63356 24.316C9.0545 25.5425 10.923 26.268 13.1428 26.268C17.9699 26.268 21.2131 22.8213 21.6158 18.1297C21.6208 18.1294 21.6261 18.1291 21.6313 18.1288C21.6498 18.1277 21.6688 18.1266 21.6836 18.1263L21.7117 18.1246L21.741 18.1229Z" fill="white"/>
<path fill-rule="evenodd" clip-rule="evenodd" d="M20.2934 6.88539C18.1432 7.68056 16.0859 8.74689 14.1629 10.1107C11.6887 11.8651 9.52856 14.0411 7.78057 16.4985C5.93019 19.1007 4.97065 22.1365 3.65037 25.0014C3.23433 25.9041 2.58671 26.7983 2.40353 27.7822C2.27176 28.4911 2.1616 29.4924 2.45797 30.1677C3.08355 29.2633 3.45293 28.1362 4.05345 27.1961C4.68206 26.2127 5.38799 25.2777 6.15787 24.3971C7.67559 22.661 9.44173 21.1339 11.3794 19.8657C12.7576 18.9635 14.2351 18.19 15.8172 17.7097C17.1012 17.3196 18.45 17.2154 19.7854 17.1496C21.1169 17.0841 22.4583 17.0586 23.7721 16.8176C24.24 16.7318 24.7019 16.6153 25.152 16.4632C25.3797 16.3863 25.6048 16.3004 25.8256 16.2048C25.8735 16.184 26.3855 15.9217 26.3911 15.9281C26.3181 15.892 26.2425 15.7772 26.185 15.719C26.1081 15.6412 26.0312 15.5635 25.9548 15.4861L25.4942 15.0199C25.1767 14.6977 24.8587 14.376 24.5407 14.0543L25.883 13.7079L26.0783 13.6578L29.0701 12.8851L34.5072 5.21726C33.7801 5.15096 33.0737 5.11059 32.379 5.08339C28.2177 4.91976 24.11 5.47439 20.2934 6.88539" fill="#E41F32"/>
</svg>
